# xmcd CD database file
#
# Track frame offsets:
#	150
#	39867
#	56132
#	98353
#	134717
#	152875
#	189492
#	231142
#
# Disc length: 3521 seconds
#
# Revision: 0
# Processed by: cddbd v1.5.2PL0 Copyright (c) Steve Scherf et al.
# Submitted via: CDex 1.70beta2
#
DISCID=630dbf08
DTITLE=Nat Su Quartet - Volatile
DYEAR=2006
DGENRE=Jazz
TTITLE0=Jamal
TTITLE1=Honest Annie
TTITLE2=Volatile
TTITLE3=Fort Greene
TTITLE4=Blues For Beppo
TTITLE5=Hagodi
TTITLE6=Two By Five
TTITLE7=Port Love
EXTD=YEAR: 2006
EXTT0=
EXTT1=
EXTT2=
EXTT3=
EXTT4=
EXTT5=
EXTT6=
EXTT7=
PLAYORDER=
